<svg width="97" height="29" viewBox="0 0 97 29" fill="none" xmlns="http://www.w3.org/2000/svg">
<path d="M12.5 3.5C6.428 3.5 1.5 8.428 1.5 14.5C1.5 20.572 6.428 25.5 12.5 25.5C18.572 25.5 23.5 20.572 23.5 14.5C23.5 8.428 18.572 3.5 12.5 3.5ZM10.3 20L4.8 14.5L6.351 12.949L10.3 16.887L18.649 8.538L20.2 10.1L10.3 20Z" fill="#3362C5"/>
<path d="M40.5909 11.1875C40.4716 10.7727 40.304 10.4062 40.0881 10.0881C39.8722 9.7642 39.608 9.49148 39.2955 9.26989C38.9886 9.04261 38.6364 8.86932 38.2386 8.75C37.8466 8.63068 37.4119 8.57102 36.9347 8.57102C36.0426 8.57102 35.2585 8.79261 34.5824 9.23579C33.9119 9.67898 33.3892 10.3239 33.0142 11.1705C32.6392 12.0114 32.4517 13.0398 32.4517 14.2557C32.4517 15.4716 32.6364 16.5057 33.0057 17.358C33.375 18.2102 33.8977 18.8608 34.5739 19.3097C35.25 19.7528 36.0483 19.9744 36.9688 19.9744C37.804 19.9744 38.517 19.8267 39.108 19.5312C39.7045 19.2301 40.1591 18.8068 40.4716 18.2614C40.7898 17.7159 40.9489 17.071 40.9489 16.3267L41.6989 16.4375H37.1989V13.6591H44.5028V15.858C44.5028 17.392 44.179 18.7102 43.5312 19.8125C42.8835 20.9091 41.9915 21.7557 40.8551 22.3523C39.7188 22.9432 38.4176 23.2386 36.9517 23.2386C35.3153 23.2386 33.8778 22.8778 32.6392 22.1562C31.4006 21.429 30.4347 20.3977 29.7415 19.0625C29.054 17.7216 28.7102 16.1307 28.7102 14.2898C28.7102 12.875 28.9148 11.6136 29.3239 10.5057C29.7386 9.39205 30.3182 8.44886 31.0625 7.67614C31.8068 6.90341 32.6733 6.31534 33.6619 5.91193C34.6506 5.50852 35.7216 5.30682 36.875 5.30682C37.8636 5.30682 38.7841 5.4517 39.6364 5.74148C40.4886 6.02557 41.2443 6.42898 41.9034 6.9517C42.5682 7.47443 43.1108 8.09659 43.5312 8.81818C43.9517 9.53409 44.2216 10.3239 44.3409 11.1875H40.5909ZM47.2749 23V5.54545H54.1612C55.4851 5.54545 56.6129 5.7983 57.5447 6.30398C58.4766 6.80398 59.1868 7.5 59.6754 8.39204C60.1697 9.27841 60.4169 10.3011 60.4169 11.4602C60.4169 12.6193 60.1669 13.642 59.6669 14.5284C59.1669 15.4148 58.4425 16.1051 57.4936 16.5994C56.5504 17.0937 55.4084 17.3409 54.0675 17.3409H49.6783V14.3835H53.4709C54.1811 14.3835 54.7663 14.2614 55.2266 14.017C55.6925 13.767 56.0391 13.4233 56.2663 12.9858C56.4993 12.5426 56.6158 12.0341 56.6158 11.4602C56.6158 10.8807 56.4993 10.375 56.2663 9.94318C56.0391 9.50568 55.6925 9.16761 55.2266 8.92898C54.7607 8.68466 54.1697 8.5625 53.4538 8.5625H50.9652V23H47.2749ZM74.3878 11.1875C74.2685 10.7727 74.1009 10.4062 73.8849 10.0881C73.669 9.7642 73.4048 9.49148 73.0923 9.26989C72.7855 9.04261 72.4332 8.86932 72.0355 8.75C71.6435 8.63068 71.2088 8.57102 70.7315 8.57102C69.8395 8.57102 69.0554 8.79261 68.3793 9.23579C67.7088 9.67898 67.1861 10.3239 66.8111 11.1705C66.4361 12.0114 66.2486 13.0398 66.2486 14.2557C66.2486 15.4716 66.4332 16.5057 66.8026 17.358C67.1719 18.2102 67.6946 18.8608 68.3707 19.3097C69.0469 19.7528 69.8452 19.9744 70.7656 19.9744C71.6009 19.9744 72.3139 19.8267 72.9048 19.5312C73.5014 19.2301 73.956 18.8068 74.2685 18.2614C74.5866 17.7159 74.7457 17.071 74.7457 16.3267L75.4957 16.4375H70.9957V13.6591H78.2997V15.858C78.2997 17.392 77.9759 18.7102 77.3281 19.8125C76.6804 20.9091 75.7884 21.7557 74.652 22.3523C73.5156 22.9432 72.2145 23.2386 70.7486 23.2386C69.1122 23.2386 67.6747 22.8778 66.4361 22.1562C65.1974 21.429 64.2315 20.3977 63.5384 19.0625C62.8509 17.7216 62.5071 16.1307 62.5071 14.2898C62.5071 12.875 62.7116 11.6136 63.1207 10.5057C63.5355 9.39205 64.1151 8.44886 64.8594 7.67614C65.6037 6.90341 66.4702 6.31534 67.4588 5.91193C68.4474 5.50852 69.5185 5.30682 70.6719 5.30682C71.6605 5.30682 72.581 5.4517 73.4332 5.74148C74.2855 6.02557 75.0412 6.42898 75.7003 6.9517C76.3651 7.47443 76.9077 8.09659 77.3281 8.81818C77.7486 9.53409 78.0185 10.3239 78.1378 11.1875H74.3878ZM79.657 8.58807V5.54545H93.9922V8.58807H88.6484V23H85.0007V8.58807H79.657Z" fill="black"/>
</svg>
