<svg width="92" height="29" viewBox="0 0 92 29" fill="none" xmlns="http://www.w3.org/2000/svg">
<path d="M11 3.5C4.928 3.5 0 8.428 0 14.5C0 20.572 4.928 25.5 11 25.5C17.072 25.5 22 20.572 22 14.5C22 8.428 17.072 3.5 11 3.5ZM8.8 20L3.3 14.5L4.851 12.949L8.8 16.887L17.149 8.538L18.7 10.1L8.8 20Z" fill="#3362C5"/>
<path d="M37.0909 11.1875C36.9716 10.7727 36.804 10.4062 36.5881 10.0881C36.3722 9.7642 36.108 9.49148 35.7955 9.26989C35.4886 9.04261 35.1364 8.86932 34.7386 8.75C34.3466 8.63068 33.9119 8.57102 33.4347 8.57102C32.5426 8.57102 31.7585 8.79261 31.0824 9.23579C30.4119 9.67898 29.8892 10.3239 29.5142 11.1705C29.1392 12.0114 28.9517 13.0398 28.9517 14.2557C28.9517 15.4716 29.1364 16.5057 29.5057 17.358C29.875 18.2102 30.3977 18.8608 31.0739 19.3097C31.75 19.7528 32.5483 19.9744 33.4688 19.9744C34.304 19.9744 35.017 19.8267 35.608 19.5312C36.2045 19.2301 36.6591 18.8068 36.9716 18.2614C37.2898 17.7159 37.4489 17.071 37.4489 16.3267L38.1989 16.4375H33.6989V13.6591H41.0028V15.858C41.0028 17.392 40.679 18.7102 40.0312 19.8125C39.3835 20.9091 38.4915 21.7557 37.3551 22.3523C36.2188 22.9432 34.9176 23.2386 33.4517 23.2386C31.8153 23.2386 30.3778 22.8778 29.1392 22.1562C27.9006 21.429 26.9347 20.3977 26.2415 19.0625C25.554 17.7216 25.2102 16.1307 25.2102 14.2898C25.2102 12.875 25.4148 11.6136 25.8239 10.5057C26.2386 9.39205 26.8182 8.44886 27.5625 7.67614C28.3068 6.90341 29.1733 6.31534 30.1619 5.91193C31.1506 5.50852 32.2216 5.30682 33.375 5.30682C34.3636 5.30682 35.2841 5.4517 36.1364 5.74148C36.9886 6.02557 37.7443 6.42898 38.4034 6.9517C39.0682 7.47443 39.6108 8.09659 40.0312 8.81818C40.4517 9.53409 40.7216 10.3239 40.8409 11.1875H37.0909ZM43.7749 23V5.54545H50.6612C51.9851 5.54545 53.1129 5.7983 54.0447 6.30398C54.9766 6.80398 55.6868 7.5 56.1754 8.39204C56.6697 9.27841 56.9169 10.3011 56.9169 11.4602C56.9169 12.6193 56.6669 13.642 56.1669 14.5284C55.6669 15.4148 54.9425 16.1051 53.9936 16.5994C53.0504 17.0937 51.9084 17.3409 50.5675 17.3409H46.1783V14.3835H49.9709C50.6811 14.3835 51.2663 14.2614 51.7266 14.017C52.1925 13.767 52.5391 13.4233 52.7663 12.9858C52.9993 12.5426 53.1158 12.0341 53.1158 11.4602C53.1158 10.8807 52.9993 10.375 52.7663 9.94318C52.5391 9.50568 52.1925 9.16761 51.7266 8.92898C51.2607 8.68466 50.6697 8.5625 49.9538 8.5625H47.4652V23H43.7749ZM70.8878 11.1875C70.7685 10.7727 70.6009 10.4062 70.3849 10.0881C70.169 9.7642 69.9048 9.49148 69.5923 9.26989C69.2855 9.04261 68.9332 8.86932 68.5355 8.75C68.1435 8.63068 67.7088 8.57102 67.2315 8.57102C66.3395 8.57102 65.5554 8.79261 64.8793 9.23579C64.2088 9.67898 63.6861 10.3239 63.3111 11.1705C62.9361 12.0114 62.7486 13.0398 62.7486 14.2557C62.7486 15.4716 62.9332 16.5057 63.3026 17.358C63.6719 18.2102 64.1946 18.8608 64.8707 19.3097C65.5469 19.7528 66.3452 19.9744 67.2656 19.9744C68.1009 19.9744 68.8139 19.8267 69.4048 19.5312C70.0014 19.2301 70.456 18.8068 70.7685 18.2614C71.0866 17.7159 71.2457 17.071 71.2457 16.3267L71.9957 16.4375H67.4957V13.6591H74.7997V15.858C74.7997 17.392 74.4759 18.7102 73.8281 19.8125C73.1804 20.9091 72.2884 21.7557 71.152 22.3523C70.0156 22.9432 68.7145 23.2386 67.2486 23.2386C65.6122 23.2386 64.1747 22.8778 62.9361 22.1562C61.6974 21.429 60.7315 20.3977 60.0384 19.0625C59.3509 17.7216 59.0071 16.1307 59.0071 14.2898C59.0071 12.875 59.2116 11.6136 59.6207 10.5057C60.0355 9.39205 60.6151 8.44886 61.3594 7.67614C62.1037 6.90341 62.9702 6.31534 63.9588 5.91193C64.9474 5.50852 66.0185 5.30682 67.1719 5.30682C68.1605 5.30682 69.081 5.4517 69.9332 5.74148C70.7855 6.02557 71.5412 6.42898 72.2003 6.9517C72.8651 7.47443 73.4077 8.09659 73.8281 8.81818C74.2486 9.53409 74.5185 10.3239 74.6378 11.1875H70.8878ZM76.157 8.58807V5.54545H90.4922V8.58807H85.1484V23H81.5007V8.58807H76.157Z" fill="black"/>
</svg>
