<svg width="65" height="69" viewBox="0 0 65 69" fill="none" xmlns="http://www.w3.org/2000/svg">
<path d="M64.5959 15.1656C64.5959 22.4637 51.0419 29.6656 44.1027 29.6656C37.1636 29.6656 30.5959 24.3563 30.5959 17.0582C30.5959 9.76013 38.5608 0.665623 45.5 0.665623C52.4392 0.665623 64.5959 7.86754 64.5959 15.1656Z" fill="#3362C5"/>
<path d="M35.88 33.892L35.796 51H32.212L22.972 35.936C22.8973 41.4053 22.8507 45.5307 22.832 48.312L24.764 48.564C24.764 49.3293 24.5493 50.1413 24.12 51H17.316L17.064 49.46C18.1093 49.0307 18.8933 48.76 19.416 48.648C19.416 48.592 19.332 43.6547 19.164 33.836L16.84 33.108L17.064 31.4H24.344L32.492 46.016L32.072 33.836L29.748 33.108L29.972 31.4H37.252C37.2333 31.4 37.2333 31.4187 37.252 31.456C37.2893 31.4933 37.3267 31.5773 37.364 31.708C37.42 31.82 37.476 31.96 37.532 32.128C37.644 32.4267 37.7187 32.9213 37.756 33.612C36.804 33.7613 36.1787 33.8547 35.88 33.892Z" fill="black"/>
<rect x="1" y="16" width="52" height="52" rx="7" stroke="black" stroke-width="2"/>
</svg>
