<svg width="60" height="61" viewBox="0 0 60 61" fill="none" xmlns="http://www.w3.org/2000/svg">
<path d="M28.251 12.9945C28.2994 6.94196 40.7676 1.06839 47.1266 1.11918C53.4855 1.16996 59.4688 5.6212 59.4205 11.6737C59.3721 17.7262 52.013 25.2103 45.6541 25.1595C39.2952 25.1087 28.2027 19.047 28.251 12.9945Z" fill="#3362C5"/>
<path d="M35.88 25.8915L35.796 42.9995H32.212L22.972 27.9355C22.8973 33.4048 22.8507 37.5302 22.832 40.3115L24.764 40.5635C24.764 41.3288 24.5493 42.1408 24.12 42.9995H17.316L17.064 41.4595C18.1093 41.0302 18.8933 40.7595 19.416 40.6475C19.416 40.5915 19.332 35.6542 19.164 25.8355L16.84 25.1075L17.064 23.3995H24.344L32.492 38.0155L32.072 25.8355L29.748 25.1075L29.972 23.3995H37.252C37.2333 23.3995 37.2333 23.4182 37.252 23.4555C37.2893 23.4928 37.3267 23.5768 37.364 23.7075C37.42 23.8195 37.476 23.9595 37.532 24.1275C37.644 24.4262 37.7187 24.9208 37.756 25.6115C36.804 25.7608 36.1787 25.8542 35.88 25.8915Z" fill="black"/>
<rect x="1" y="7.99951" width="52" height="52" rx="7" stroke="black" stroke-width="2"/>
</svg>
