<svg width="63" height="62" viewBox="0 0 63 62" fill="none" xmlns="http://www.w3.org/2000/svg">
<path d="M44.88 26.8915L44.796 43.9995H41.212L31.972 28.9355C31.8973 34.4048 31.8507 38.5302 31.832 41.3115L33.764 41.5635C33.764 42.3288 33.5493 43.1408 33.12 43.9995H26.316L26.064 42.4595C27.1093 42.0302 27.8933 41.7595 28.416 41.6475C28.416 41.5915 28.332 36.6542 28.164 26.8355L25.84 26.1075L26.064 24.3995H33.344L41.492 39.0155L41.072 26.8355L38.748 26.1075L38.972 24.3995H46.252C46.2333 24.3995 46.2333 24.4182 46.252 24.4555C46.2893 24.4928 46.3267 24.5768 46.364 24.7075C46.42 24.8195 46.476 24.9595 46.532 25.1275C46.644 25.4262 46.7187 25.9208 46.756 26.6115C45.804 26.7608 45.1787 26.8542 44.88 26.8915Z" fill="black"/>
<path d="M30 14.5C30 21.7981 18.0406 29 11.9178 29C5.79501 29 0 23.6907 0 16.3926C0 9.09451 7.02788 0 13.1507 0C19.2735 0 30 7.20192 30 14.5Z" fill="#3362C5"/>
<rect x="10" y="8.99951" width="52" height="52" rx="7" stroke="black" stroke-width="2"/>
</svg>
