<svg width="68" height="68" viewBox="0 0 68 68" fill="none" xmlns="http://www.w3.org/2000/svg">
<path d="M57.3375 10.9365C62.6709 16.4409 60.0645 29.498 56.0355 33.4018C52.0065 37.3056 44.3131 36.996 38.9797 31.4915C33.6463 25.9871 31.6245 14.6468 35.6535 10.743C39.6825 6.83919 52.004 5.43202 57.3375 10.9365Z" fill="#3362C5"/>
<path d="M35.88 32.8913L35.796 49.9993H32.212L22.972 34.9353C22.8973 40.4046 22.8507 44.5299 22.832 47.3113L24.764 47.5633C24.764 48.3286 24.5493 49.1406 24.12 49.9993H17.316L17.064 48.4593C18.1093 48.0299 18.8933 47.7593 19.416 47.6473C19.416 47.5913 19.332 42.6539 19.164 32.8353L16.84 32.1073L17.064 30.3993H24.344L32.492 45.0153L32.072 32.8353L29.748 32.1073L29.972 30.3993H37.252C37.2333 30.3993 37.2333 30.4179 37.252 30.4553C37.2893 30.4926 37.3267 30.5766 37.364 30.7073C37.42 30.8193 37.476 30.9593 37.532 31.1273C37.644 31.4259 37.7187 31.9206 37.756 32.6113C36.804 32.7606 36.1787 32.8539 35.88 32.8913Z" fill="black"/>
<rect x="1" y="14.9993" width="52" height="52" rx="7" stroke="black" stroke-width="2"/>
</svg>
