<svg width="62" height="67" viewBox="0 0 62 67" fill="none" xmlns="http://www.w3.org/2000/svg">
<path d="M62 17.5C62 26.308 48.8447 35 42.1096 35C35.3745 35 29 28.5922 29 19.7842C29 10.9761 36.7307 0 43.4658 0C50.2008 0 62 8.69197 62 17.5Z" fill="#3362C5"/>
<path d="M39.56 27.004L39.452 49H34.844L22.964 29.632C22.868 36.664 22.808 41.968 22.784 45.544L25.268 45.868C25.268 46.852 24.992 47.896 24.44 49H15.692L15.368 47.02C16.712 46.468 17.72 46.12 18.392 45.976C18.392 45.904 18.284 39.556 18.068 26.932L15.08 25.996L15.368 23.8H24.728L35.204 42.592L34.664 26.932L31.676 25.996L31.964 23.8H41.324C41.3 23.8 41.3 23.824 41.324 23.872C41.372 23.92 41.42 24.028 41.468 24.196C41.54 24.34 41.612 24.52 41.684 24.736C41.828 25.12 41.924 25.756 41.972 26.644C40.748 26.836 39.944 26.956 39.56 27.004Z" fill="black"/>
<rect x="1" y="7" width="56" height="59" rx="7" stroke="black" stroke-width="2"/>
</svg>
