<svg width="73" height="69" viewBox="0 0 73 69" fill="none" xmlns="http://www.w3.org/2000/svg">
<path d="M31.5 15.5885C31.5 23.6415 21.9494 32 14.5 32C7.05059 32 0 26.1414 0 18.0884C0 10.0353 8.55059 0 16 0C23.4494 0 31.5 7.53541 31.5 15.5885Z" fill="#3362C5"/>
<path d="M21.9512 55.439L20.6342 65.6829L31.9024 55.7316" stroke="black" stroke-width="2"/>
<path d="M21.8049 55.7317H17C14.2386 55.7317 12 53.4931 12 50.7317V18C12 15.2386 14.2386 13 17 13H67C69.7614 13 72 15.2386 72 18V50.7317C72 53.4931 69.7614 55.7317 67 55.7317H42H31.6098" stroke="black" stroke-width="2"/>
<path d="M40.6364 37.9972V37.5369C40.642 36.6392 40.7415 35.9091 40.9347 35.3466C41.1278 34.7841 41.4119 34.3097 41.7869 33.9233C42.1676 33.5312 42.6392 33.1562 43.2017 32.7983C43.6222 32.5256 43.9744 32.2386 44.2585 31.9375C44.5483 31.6307 44.767 31.2955 44.9148 30.9318C45.0682 30.5625 45.1449 30.1619 45.1449 29.7301C45.1449 29.1165 45 28.5795 44.7102 28.1193C44.4261 27.6591 44.0398 27.304 43.5511 27.054C43.0625 26.7983 42.5199 26.6705 41.9233 26.6705C41.3551 26.6705 40.8239 26.7955 40.3295 27.0455C39.8409 27.2898 39.4403 27.6534 39.1278 28.1364C38.821 28.6136 38.6534 29.2045 38.625 29.9091H37.0142C37.0426 28.9716 37.2756 28.1591 37.7131 27.4716C38.1506 26.7841 38.7358 26.2528 39.4688 25.8778C40.2017 25.4972 41.0199 25.3068 41.9233 25.3068C42.8665 25.3068 43.696 25.5028 44.4119 25.8949C45.1278 26.2812 45.6875 26.8125 46.0909 27.4886C46.4943 28.1591 46.696 28.929 46.696 29.7983C46.696 30.3722 46.6051 30.8949 46.4233 31.3665C46.2415 31.8381 45.9688 32.2727 45.6051 32.6705C45.2472 33.0682 44.7983 33.4432 44.2585 33.7955C43.7472 34.1364 43.3409 34.4744 43.0398 34.8097C42.7386 35.1449 42.5227 35.5284 42.392 35.9602C42.2614 36.3864 42.1903 36.9119 42.179 37.5369V37.9972H40.6364ZM41.4545 43.1278C41.1193 43.1278 40.8295 43.0085 40.5852 42.7699C40.3466 42.5256 40.2273 42.2358 40.2273 41.9006C40.2273 41.5597 40.3466 41.2699 40.5852 41.0312C40.8295 40.7926 41.1193 40.6733 41.4545 40.6733C41.7898 40.6733 42.0767 40.7926 42.3153 41.0312C42.5597 41.2699 42.6818 41.5597 42.6818 41.9006C42.6818 42.1222 42.625 42.3267 42.5114 42.5142C42.4034 42.7017 42.2557 42.8523 42.0682 42.9659C41.8864 43.0739 41.6818 43.1278 41.4545 43.1278Z" fill="black"/>
</svg>
