<svg width="67" height="71" viewBox="0 0 67 71" fill="none" xmlns="http://www.w3.org/2000/svg">
<path d="M38.5 55C38.5 63.0531 23.9494 71 16.5 71C9.05059 71 2 65.1414 2 57.0884C2 49.0353 10.5506 39 18 39C25.4494 39 38.5 46.9469 38.5 55Z" fill="#3362C5"/>
<path d="M18.049 63V63C8.39154 63 0.851102 54.6517 1.8306 45.0441L3.59111 27.7757C4.34727 20.3586 10.5935 14.7168 18.049 14.7168V14.7168M27.3469 63H43.447C55.7867 63 65.1826 51.935 63.1825 39.7584L61.4629 29.2889C60.0825 20.8848 52.8188 14.7168 44.302 14.7168V14.7168M18.049 14.7168V14.1265C18.049 6.87694 23.9259 1 31.1755 1V1C38.4251 1 44.302 6.87694 44.302 14.1265V14.7168M18.049 14.7168H44.302M18.049 22.6726V22.6726C18.049 28.1301 22.4181 32.5832 27.8746 32.6871L33.9765 32.8033C39.647 32.9113 44.302 28.3442 44.302 22.6726V22.6726" stroke="black" stroke-width="2"/>
</svg>
